<?xml version="1.0" encoding="utf-8"?>
<!-- Generator: Adobe Illustrator 16.0.0, SVG Export Plug-In . SVG Version: 6.00 Build 0)  -->
<!DOCTYPE svg PUBLIC "-//W3C//DTD SVG 1.1//EN" "http://www.w3.org/Graphics/SVG/1.1/DTD/svg11.dtd">
<svg version="1.1" id="Layer_1" xmlns="http://www.w3.org/2000/svg" xmlns:xlink="http://www.w3.org/1999/xlink" x="0px" y="0px"
	 width="46.779px" height="74.072px" viewBox="0 0 46.779 74.072" enable-background="new 0 0 46.779 74.072" xml:space="preserve">
<g id="Layer_1_1_">
</g>
<g id="Layer_3">
</g>
<g id="Layer_2">
</g>
<g id="Layer_4">
	<g>
		<g>
			<path fill="#ACFEF2" d="M46.659,50.094c-0.266-0.596-0.84-0.979-1.468-0.979l-20.179-0.011V1.596C25.012,0.713,24.288,0,23.417,0
				c-0.884,0-1.597,0.713-1.597,1.596v67.069L5.451,52.297h10.792c0.873,0,1.597-0.713,1.597-1.597c0-0.883-0.724-1.596-1.597-1.596
				H1.599c-0.649,0-1.225,0.381-1.479,0.988c-0.245,0.598-0.105,1.277,0.352,1.734l21.765,21.785
				c0.244,0.225,0.553,0.384,0.861,0.426c0.105,0.031,0.201,0.031,0.266,0.031c0.107,0,0.192-0.01,0.256-0.021
				c0.341-0.043,0.682-0.202,0.926-0.446L46.31,51.838C46.765,51.381,46.904,50.701,46.659,50.094z M25.012,68.623V52.297
				l16.314,0.011L25.012,68.623z"/>
		</g>
	</g>
</g>
</svg>
