<?xml version="1.0" encoding="utf-8"?>
<!-- Generator: Adobe Illustrator 16.0.0, SVG Export Plug-In . SVG Version: 6.00 Build 0)  -->
<!DOCTYPE svg PUBLIC "-//W3C//DTD SVG 1.1 Tiny//EN" "http://www.w3.org/Graphics/SVG/1.1/DTD/svg11-tiny.dtd">
<svg version="1.1" baseProfile="tiny" id="Layer_1" xmlns="http://www.w3.org/2000/svg" xmlns:xlink="http://www.w3.org/1999/xlink"
	 x="0px" y="0px" width="70px" height="50px" viewBox="0 0 70 50" xml:space="preserve">
<g id="Guides">
</g>
<g id="_x31_2_Col_Grid" display="none">
	<g display="inline">
		<g>
			<rect x="2224.913" y="-5511.5" fill="#FF0000" width="60" height="11888"/>
		</g>
		<g>
			<rect x="2144.913" y="-5511.5" fill="#FF0000" width="60" height="11888"/>
		</g>
		<g>
			<rect x="2064.913" y="-5511.5" fill="#FF0000" width="60" height="11888"/>
		</g>
		<g>
			<rect x="1984.913" y="-5511.5" fill="#FF0000" width="60" height="11888"/>
		</g>
		<g>
			<rect x="1904.913" y="-5511.5" fill="#FF0000" width="60" height="11888"/>
		</g>
		<g>
			<rect x="1824.913" y="-5511.5" fill="#FF0000" width="60" height="11888"/>
		</g>
		<g>
			<rect x="1744.913" y="-5511.5" fill="#FF0000" width="60" height="11888"/>
		</g>
		<g>
			<rect x="1664.913" y="-5511.5" fill="#FF0000" width="60" height="11888"/>
		</g>
		<g>
			<rect x="1584.913" y="-5511.5" fill="#FF0000" width="60" height="11888"/>
		</g>
		<g>
			<rect x="1504.913" y="-5511.5" fill="#FF0000" width="60" height="11888"/>
		</g>
		<g>
			<rect x="1424.913" y="-5511.5" fill="#FF0000" width="60" height="11888"/>
		</g>
		<g>
			<rect x="1344.913" y="-5511.5" fill="#FF0000" width="60" height="11888"/>
		</g>
	</g>
</g>
<g>
	<polygon fill="#ACFEF2" points="43.656,18.691 43.656,18.691 28.008,49.799 59.285,49.801 	"/>
	<polygon fill="#4D5373" points="34.216,0 9.162,49.799 26.844,49.799 43.074,17.546 	"/>
</g>
</svg>
