<?xml version="1.0" encoding="UTF-8" standalone="no"?>
<svg width="61px" height="52px" viewBox="0 0 61 52" version="1.1" xmlns="http://www.w3.org/2000/svg" xmlns:xlink="http://www.w3.org/1999/xlink">
    <!-- Generator: Sketch 39.1 (31720) - http://www.bohemiancoding.com/sketch -->
    <title>pdp-circle</title>
    <desc>Created with Sketch.</desc>
    <defs></defs>
    <g id="Page-1" stroke="none" stroke-width="1" fill="none" fill-rule="evenodd">
        <g id="pdp-circle" transform="translate(1.000000, 0.000000)">
            <polygon id="Fill-1" fill="#FFFFFF" points="39.479 37.9395 59.813 37.9395 59.813 15.2725 39.479 15.2725"></polygon>
            <g id="Group-9" transform="translate(0.000000, 0.374500)" stroke="#ED4F7E" stroke-width="2" stroke-linecap="round">
                <path d="M49.3747,25.3128 C49.3747,38.9468 38.3217,49.9998 24.6877,49.9998 C11.0527,49.9998 -0.0003,38.9468 -0.0003,25.3128 C-0.0003,11.6788 11.0527,0.6258 24.6877,0.6258 C38.3217,0.6258 49.3747,11.6788 49.3747,25.3128 L49.3747,25.3128 Z" id="Stroke-5"></path>
            </g>
            <g id="stroke" transform="translate(1.000000, 17.000000)" stroke="#AFB5BD" stroke-width="1.5" stroke-linecap="round">
                <path d="M0.9883,10 L2.4883,10" id="Stroke-2"></path>
                <path d="M8.3599,10 L24.2139,10" id="Stroke-3" stroke-dasharray="3.523,5.872"></path>
                <path d="M27.1494,10 L28.6494,10" id="Stroke-4"></path>
                <polyline id="Stroke-7" stroke-linejoin="round" points="28.646 9.6057 28.646 0.0547 37.811 10.0857 28.646 19.2097 28.646 12.6057"></polyline>
            </g>
        </g>
    </g>
</svg>