<?xml version="1.0" encoding="UTF-8" standalone="no"?>
<svg width="717px" height="21px" viewBox="0 0 717 21" version="1.1" xmlns="http://www.w3.org/2000/svg" xmlns:xlink="http://www.w3.org/1999/xlink">
    <!-- Generator: Sketch 39.1 (31720) - http://www.bohemiancoding.com/sketch -->
    <title>Page 1</title>
    <desc>Created with Sketch.</desc>
    <defs>
        <polygon id="path-1" points="5.471 21 10.553 21 10.553 0.844414372 0.389 0.844414372 0.389 21 5.471 21"></polygon>
    </defs>
    <g id="Page-1" stroke="none" stroke-width="1" fill="none" fill-rule="evenodd">
        <g transform="translate(0.000000, -1.000000)">
            <path d="M3.1111,10.0064 L0.4451,10.0064 C0.1991,10.0064 0.0001,9.7584 0.0001,9.4514 C0.0001,9.1444 0.1991,8.8964 0.4451,8.8964 L3.1111,8.8964 C3.3571,8.8964 3.5561,9.1444 3.5561,9.4514 C3.5561,9.7584 3.3571,10.0064 3.1111,10.0064 M10.2191,10.0064 L7.5531,10.0064 C7.3071,10.0064 7.1081,9.7584 7.1081,9.4514 C7.1081,9.1444 7.3071,8.8964 7.5531,8.8964 L10.2191,8.8964 C10.4651,8.8964 10.6641,9.1444 10.6641,9.4514 C10.6641,9.7584 10.4651,10.0064 10.2191,10.0064 M17.3271,10.0064 L14.6611,10.0064 C14.4151,10.0064 14.2161,9.7584 14.2161,9.4514 C14.2161,9.1444 14.4151,8.8964 14.6611,8.8964 L17.3271,8.8964 C17.5731,8.8964 17.7721,9.1444 17.7721,9.4514 C17.7721,9.7584 17.5731,10.0064 17.3271,10.0064 M24.4351,10.0064 L21.7691,10.0064 C21.5231,10.0064 21.3241,9.7584 21.3241,9.4514 C21.3241,9.1444 21.5231,8.8964 21.7691,8.8964 L24.4351,8.8964 C24.6811,8.8964 24.8801,9.1444 24.8801,9.4514 C24.8801,9.7584 24.6811,10.0064 24.4351,10.0064 M31.5431,10.0064 L28.8771,10.0064 C28.6311,10.0064 28.4321,9.7584 28.4321,9.4514 C28.4321,9.1444 28.6311,8.8964 28.8771,8.8964 L31.5431,8.8964 C31.7891,8.8964 31.9881,9.1444 31.9881,9.4514 C31.9881,9.7584 31.7891,10.0064 31.5431,10.0064 M38.6501,10.0064 L35.9851,10.0064 C35.7391,10.0064 35.5391,9.7584 35.5391,9.4514 C35.5391,9.1444 35.7391,8.8964 35.9851,8.8964 L38.6501,8.8964 C38.8961,8.8964 39.0951,9.1444 39.0951,9.4514 C39.0951,9.7584 38.8961,10.0064 38.6501,10.0064 M45.7581,10.0064 L43.0931,10.0064 C42.8471,10.0064 42.6471,9.7584 42.6471,9.4514 C42.6471,9.1444 42.8471,8.8964 43.0931,8.8964 L45.7581,8.8964 C46.0041,8.8964 46.2031,9.1444 46.2031,9.4514 C46.2031,9.7584 46.0041,10.0064 45.7581,10.0064 M52.8661,10.0064 L50.2011,10.0064 C49.9541,10.0064 49.7551,9.7584 49.7551,9.4514 C49.7551,9.1444 49.9541,8.8964 50.2011,8.8964 L52.8661,8.8964 C53.1121,8.8964 53.3111,9.1444 53.3111,9.4514 C53.3111,9.7584 53.1121,10.0064 52.8661,10.0064 M59.9731,10.0064 L57.3091,10.0064 C57.0621,10.0064 56.8631,9.7584 56.8631,9.4514 C56.8631,9.1444 57.0621,8.8964 57.3091,8.8964 L59.9731,8.8964 C60.2201,8.8964 60.4191,9.1444 60.4191,9.4514 C60.4191,9.7584 60.2201,10.0064 59.9731,10.0064 M67.0811,10.0064 L64.4171,10.0064 C64.1701,10.0064 63.9711,9.7584 63.9711,9.4514 C63.9711,9.1444 64.1701,8.8964 64.4171,8.8964 L67.0811,8.8964 C67.3281,8.8964 67.5271,9.1444 67.5271,9.4514 C67.5271,9.7584 67.3281,10.0064 67.0811,10.0064 M74.1891,10.0064 L71.5241,10.0064 C71.2781,10.0064 71.0791,9.7584 71.0791,9.4514 C71.0791,9.1444 71.2781,8.8964 71.5241,8.8964 L74.1891,8.8964 C74.4351,8.8964 74.6351,9.1444 74.6351,9.4514 C74.6351,9.7584 74.4351,10.0064 74.1891,10.0064 M81.2971,10.0064 L78.6311,10.0064 C78.3851,10.0064 78.1861,9.7584 78.1861,9.4514 C78.1861,9.1444 78.3851,8.8964 78.6311,8.8964 L81.2971,8.8964 C81.5431,8.8964 81.7431,9.1444 81.7431,9.4514 C81.7431,9.7584 81.5431,10.0064 81.2971,10.0064 M88.4051,10.0064 L85.7391,10.0064 C85.4931,10.0064 85.2941,9.7584 85.2941,9.4514 C85.2941,9.1444 85.4931,8.8964 85.7391,8.8964 L88.4051,8.8964 C88.6511,8.8964 88.8511,9.1444 88.8511,9.4514 C88.8511,9.7584 88.6511,10.0064 88.4051,10.0064 M95.5131,10.0064 L92.8471,10.0064 C92.6011,10.0064 92.4021,9.7584 92.4021,9.4514 C92.4021,9.1444 92.6011,8.8964 92.8471,8.8964 L95.5131,8.8964 C95.7591,8.8964 95.9581,9.1444 95.9581,9.4514 C95.9581,9.7584 95.7591,10.0064 95.5131,10.0064 M102.6211,10.0064 L99.9551,10.0064 C99.7091,10.0064 99.5101,9.7584 99.5101,9.4514 C99.5101,9.1444 99.7091,8.8964 99.9551,8.8964 L102.6211,8.8964 C102.8671,8.8964 103.0661,9.1444 103.0661,9.4514 C103.0661,9.7584 102.8671,10.0064 102.6211,10.0064 M109.7291,10.0064 L107.0631,10.0064 C106.8171,10.0064 106.6181,9.7584 106.6181,9.4514 C106.6181,9.1444 106.8171,8.8964 107.0631,8.8964 L109.7291,8.8964 C109.9751,8.8964 110.1741,9.1444 110.1741,9.4514 C110.1741,9.7584 109.9751,10.0064 109.7291,10.0064 M116.8371,10.0064 L114.1711,10.0064 C113.9251,10.0064 113.7261,9.7584 113.7261,9.4514 C113.7261,9.1444 113.9251,8.8964 114.1711,8.8964 L116.8371,8.8964 C117.0831,8.8964 117.2821,9.1444 117.2821,9.4514 C117.2821,9.7584 117.0831,10.0064 116.8371,10.0064 M123.9451,10.0064 L121.2791,10.0064 C121.0331,10.0064 120.8341,9.7584 120.8341,9.4514 C120.8341,9.1444 121.0331,8.8964 121.2791,8.8964 L123.9451,8.8964 C124.1911,8.8964 124.3901,9.1444 124.3901,9.4514 C124.3901,9.7584 124.1911,10.0064 123.9451,10.0064 M131.0531,10.0064 L128.3871,10.0064 C128.1411,10.0064 127.9411,9.7584 127.9411,9.4514 C127.9411,9.1444 128.1411,8.8964 128.3871,8.8964 L131.0531,8.8964 C131.2991,8.8964 131.4981,9.1444 131.4981,9.4514 C131.4981,9.7584 131.2991,10.0064 131.0531,10.0064 M138.1601,10.0064 L135.4951,10.0064 C135.2491,10.0064 135.0491,9.7584 135.0491,9.4514 C135.0491,9.1444 135.2491,8.8964 135.4951,8.8964 L138.1601,8.8964 C138.4071,8.8964 138.6061,9.1444 138.6061,9.4514 C138.6061,9.7584 138.4071,10.0064 138.1601,10.0064 M145.2681,10.0064 L142.6031,10.0064 C142.3561,10.0064 142.1571,9.7584 142.1571,9.4514 C142.1571,9.1444 142.3561,8.8964 142.6031,8.8964 L145.2681,8.8964 C145.5151,8.8964 145.7141,9.1444 145.7141,9.4514 C145.7141,9.7584 145.5151,10.0064 145.2681,10.0064 M152.3761,10.0064 L149.7111,10.0064 C149.4641,10.0064 149.2651,9.7584 149.2651,9.4514 C149.2651,9.1444 149.4641,8.8964 149.7111,8.8964 L152.3761,8.8964 C152.6231,8.8964 152.8221,9.1444 152.8221,9.4514 C152.8221,9.7584 152.6231,10.0064 152.3761,10.0064 M159.4841,10.0064 L156.8191,10.0064 C156.5721,10.0064 156.3731,9.7584 156.3731,9.4514 C156.3731,9.1444 156.5721,8.8964 156.8191,8.8964 L159.4841,8.8964 C159.7301,8.8964 159.9301,9.1444 159.9301,9.4514 C159.9301,9.7584 159.7301,10.0064 159.4841,10.0064 M166.5921,10.0064 L163.9261,10.0064 C163.6801,10.0064 163.4811,9.7584 163.4811,9.4514 C163.4811,9.1444 163.6801,8.8964 163.9261,8.8964 L166.5921,8.8964 C166.8381,8.8964 167.0381,9.1444 167.0381,9.4514 C167.0381,9.7584 166.8381,10.0064 166.5921,10.0064 M173.6991,10.0064 L171.0341,10.0064 C170.7881,10.0064 170.5891,9.7584 170.5891,9.4514 C170.5891,9.1444 170.7881,8.8964 171.0341,8.8964 L173.6991,8.8964 C173.9451,8.8964 174.1451,9.1444 174.1451,9.4514 C174.1451,9.7584 173.9451,10.0064 173.6991,10.0064 M180.8071,10.0064 L178.1421,10.0064 C177.8961,10.0064 177.6971,9.7584 177.6971,9.4514 C177.6971,9.1444 177.8961,8.8964 178.1421,8.8964 L180.8071,8.8964 C181.0531,8.8964 181.2531,9.1444 181.2531,9.4514 C181.2531,9.7584 181.0531,10.0064 180.8071,10.0064 M187.9151,10.0064 L185.2501,10.0064 C185.0041,10.0064 184.8051,9.7584 184.8051,9.4514 C184.8051,9.1444 185.0041,8.8964 185.2501,8.8964 L187.9151,8.8964 C188.1611,8.8964 188.3601,9.1444 188.3601,9.4514 C188.3601,9.7584 188.1611,10.0064 187.9151,10.0064 M195.0231,10.0064 L192.3581,10.0064 C192.1121,10.0064 191.9131,9.7584 191.9131,9.4514 C191.9131,9.1444 192.1121,8.8964 192.3581,8.8964 L195.0231,8.8964 C195.2691,8.8964 195.4681,9.1444 195.4681,9.4514 C195.4681,9.7584 195.2691,10.0064 195.0231,10.0064 M202.1311,10.0064 L199.4661,10.0064 C199.2201,10.0064 199.0211,9.7584 199.0211,9.4514 C199.0211,9.1444 199.2201,8.8964 199.4661,8.8964 L202.1311,8.8964 C202.3771,8.8964 202.5761,9.1444 202.5761,9.4514 C202.5761,9.7584 202.3771,10.0064 202.1311,10.0064 M209.2391,10.0064 L206.5741,10.0064 C206.3281,10.0064 206.1281,9.7584 206.1281,9.4514 C206.1281,9.1444 206.3281,8.8964 206.5741,8.8964 L209.2391,8.8964 C209.4851,8.8964 209.6841,9.1444 209.6841,9.4514 C209.6841,9.7584 209.4851,10.0064 209.2391,10.0064 M216.3471,10.0064 L213.6821,10.0064 C213.4361,10.0064 213.2361,9.7584 213.2361,9.4514 C213.2361,9.1444 213.4361,8.8964 213.6821,8.8964 L216.3471,8.8964 C216.5931,8.8964 216.7921,9.1444 216.7921,9.4514 C216.7921,9.7584 216.5931,10.0064 216.3471,10.0064 M223.4551,10.0064 L220.7901,10.0064 C220.5441,10.0064 220.3441,9.7584 220.3441,9.4514 C220.3441,9.1444 220.5441,8.8964 220.7901,8.8964 L223.4551,8.8964 C223.7011,8.8964 223.9001,9.1444 223.9001,9.4514 C223.9001,9.7584 223.7011,10.0064 223.4551,10.0064 M230.5621,10.0064 L227.8981,10.0064 C227.6511,10.0064 227.4521,9.7584 227.4521,9.4514 C227.4521,9.1444 227.6511,8.8964 227.8981,8.8964 L230.5621,8.8964 C230.8091,8.8964 231.0081,9.1444 231.0081,9.4514 C231.0081,9.7584 230.8091,10.0064 230.5621,10.0064 M237.6701,10.0064 L235.0051,10.0064 C234.7591,10.0064 234.5591,9.7584 234.5591,9.4514 C234.5591,9.1444 234.7591,8.8964 235.0051,8.8964 L237.6701,8.8964 C237.9171,8.8964 238.1161,9.1444 238.1161,9.4514 C238.1161,9.7584 237.9171,10.0064 237.6701,10.0064 M244.7781,10.0064 L242.1131,10.0064 C241.8661,10.0064 241.6671,9.7584 241.6671,9.4514 C241.6671,9.1444 241.8661,8.8964 242.1131,8.8964 L244.7781,8.8964 C245.0251,8.8964 245.2241,9.1444 245.2241,9.4514 C245.2241,9.7584 245.0251,10.0064 244.7781,10.0064 M251.8861,10.0064 L249.2211,10.0064 C248.9741,10.0064 248.7751,9.7584 248.7751,9.4514 C248.7751,9.1444 248.9741,8.8964 249.2211,8.8964 L251.8861,8.8964 C252.1321,8.8964 252.3321,9.1444 252.3321,9.4514 C252.3321,9.7584 252.1321,10.0064 251.8861,10.0064 M258.9941,10.0064 L256.3281,10.0064 C256.0821,10.0064 255.8831,9.7584 255.8831,9.4514 C255.8831,9.1444 256.0821,8.8964 256.3281,8.8964 L258.9941,8.8964 C259.2401,8.8964 259.4401,9.1444 259.4401,9.4514 C259.4401,9.7584 259.2401,10.0064 258.9941,10.0064 M266.1021,10.0064 L263.4361,10.0064 C263.1901,10.0064 262.9911,9.7584 262.9911,9.4514 C262.9911,9.1444 263.1901,8.8964 263.4361,8.8964 L266.1021,8.8964 C266.3481,8.8964 266.5471,9.1444 266.5471,9.4514 C266.5471,9.7584 266.3481,10.0064 266.1021,10.0064 M273.2101,10.0064 L270.5441,10.0064 C270.2981,10.0064 270.0991,9.7584 270.0991,9.4514 C270.0991,9.1444 270.2981,8.8964 270.5441,8.8964 L273.2101,8.8964 C273.4561,8.8964 273.6551,9.1444 273.6551,9.4514 C273.6551,9.7584 273.4561,10.0064 273.2101,10.0064 M280.3181,10.0064 L277.6521,10.0064 C277.4061,10.0064 277.2071,9.7584 277.2071,9.4514 C277.2071,9.1444 277.4061,8.8964 277.6521,8.8964 L280.3181,8.8964 C280.5641,8.8964 280.7631,9.1444 280.7631,9.4514 C280.7631,9.7584 280.5641,10.0064 280.3181,10.0064 M287.4261,10.0064 L284.7601,10.0064 C284.5141,10.0064 284.3151,9.7584 284.3151,9.4514 C284.3151,9.1444 284.5141,8.8964 284.7601,8.8964 L287.4261,8.8964 C287.6721,8.8964 287.8711,9.1444 287.8711,9.4514 C287.8711,9.7584 287.6721,10.0064 287.4261,10.0064 M294.5341,10.0064 L291.8681,10.0064 C291.6221,10.0064 291.4231,9.7584 291.4231,9.4514 C291.4231,9.1444 291.6221,8.8964 291.8681,8.8964 L294.5341,8.8964 C294.7801,8.8964 294.9791,9.1444 294.9791,9.4514 C294.9791,9.7584 294.7801,10.0064 294.5341,10.0064 M301.6421,10.0064 L298.9761,10.0064 C298.7301,10.0064 298.5301,9.7584 298.5301,9.4514 C298.5301,9.1444 298.7301,8.8964 298.9761,8.8964 L301.6421,8.8964 C301.8881,8.8964 302.0871,9.1444 302.0871,9.4514 C302.0871,9.7584 301.8881,10.0064 301.6421,10.0064 M308.7501,10.0064 L306.0841,10.0064 C305.8381,10.0064 305.6381,9.7584 305.6381,9.4514 C305.6381,9.1444 305.8381,8.8964 306.0841,8.8964 L308.7501,8.8964 C308.9961,8.8964 309.1951,9.1444 309.1951,9.4514 C309.1951,9.7584 308.9961,10.0064 308.7501,10.0064 M315.8571,10.0064 L313.1921,10.0064 C312.9461,10.0064 312.7461,9.7584 312.7461,9.4514 C312.7461,9.1444 312.9461,8.8964 313.1921,8.8964 L315.8571,8.8964 C316.1041,8.8964 316.3031,9.1444 316.3031,9.4514 C316.3031,9.7584 316.1041,10.0064 315.8571,10.0064 M322.9651,10.0064 L320.3001,10.0064 C320.0531,10.0064 319.8541,9.7584 319.8541,9.4514 C319.8541,9.1444 320.0531,8.8964 320.3001,8.8964 L322.9651,8.8964 C323.2121,8.8964 323.4111,9.1444 323.4111,9.4514 C323.4111,9.7584 323.2121,10.0064 322.9651,10.0064 M330.0731,10.0064 L327.4081,10.0064 C327.1611,10.0064 326.9621,9.7584 326.9621,9.4514 C326.9621,9.1444 327.1611,8.8964 327.4081,8.8964 L330.0731,8.8964 C330.3191,8.8964 330.5191,9.1444 330.5191,9.4514 C330.5191,9.7584 330.3191,10.0064 330.0731,10.0064 M337.1811,10.0064 L334.5151,10.0064 C334.2691,10.0064 334.0701,9.7584 334.0701,9.4514 C334.0701,9.1444 334.2691,8.8964 334.5151,8.8964 L337.1811,8.8964 C337.4271,8.8964 337.6271,9.1444 337.6271,9.4514 C337.6271,9.7584 337.4271,10.0064 337.1811,10.0064 M344.2891,10.0064 L341.6231,10.0064 C341.3771,10.0064 341.1781,9.7584 341.1781,9.4514 C341.1781,9.1444 341.3771,8.8964 341.6231,8.8964 L344.2891,8.8964 C344.5351,8.8964 344.7351,9.1444 344.7351,9.4514 C344.7351,9.7584 344.5351,10.0064 344.2891,10.0064 M351.3971,10.0064 L348.7311,10.0064 C348.4851,10.0064 348.2861,9.7584 348.2861,9.4514 C348.2861,9.1444 348.4851,8.8964 348.7311,8.8964 L351.3971,8.8964 C351.6431,8.8964 351.8421,9.1444 351.8421,9.4514 C351.8421,9.7584 351.6431,10.0064 351.3971,10.0064 M358.5051,10.0064 L355.8391,10.0064 C355.5931,10.0064 355.3941,9.7584 355.3941,9.4514 C355.3941,9.1444 355.5931,8.8964 355.8391,8.8964 L358.5051,8.8964 C358.7511,8.8964 358.9501,9.1444 358.9501,9.4514 C358.9501,9.7584 358.7511,10.0064 358.5051,10.0064 M365.6131,10.0064 L362.9471,10.0064 C362.7011,10.0064 362.5021,9.7584 362.5021,9.4514 C362.5021,9.1444 362.7011,8.8964 362.9471,8.8964 L365.6131,8.8964 C365.8591,8.8964 366.0581,9.1444 366.0581,9.4514 C366.0581,9.7584 365.8591,10.0064 365.6131,10.0064 M372.7211,10.0064 L370.0551,10.0064 C369.8091,10.0064 369.6101,9.7584 369.6101,9.4514 C369.6101,9.1444 369.8091,8.8964 370.0551,8.8964 L372.7211,8.8964 C372.9671,8.8964 373.1661,9.1444 373.1661,9.4514 C373.1661,9.7584 372.9671,10.0064 372.7211,10.0064 M379.8291,10.0064 L377.1631,10.0064 C376.9171,10.0064 376.7181,9.7584 376.7181,9.4514 C376.7181,9.1444 376.9171,8.8964 377.1631,8.8964 L379.8291,8.8964 C380.0751,8.8964 380.2741,9.1444 380.2741,9.4514 C380.2741,9.7584 380.0751,10.0064 379.8291,10.0064 M386.9371,10.0064 L384.2711,10.0064 C384.0251,10.0064 383.8251,9.7584 383.8251,9.4514 C383.8251,9.1444 384.0251,8.8964 384.2711,8.8964 L386.9371,8.8964 C387.1831,8.8964 387.3821,9.1444 387.3821,9.4514 C387.3821,9.7584 387.1831,10.0064 386.9371,10.0064 M394.0441,10.0064 L391.3791,10.0064 C391.1331,10.0064 390.9331,9.7584 390.9331,9.4514 C390.9331,9.1444 391.1331,8.8964 391.3791,8.8964 L394.0441,8.8964 C394.2901,8.8964 394.4891,9.1444 394.4891,9.4514 C394.4891,9.7584 394.2901,10.0064 394.0441,10.0064 M401.1521,10.0064 L398.4871,10.0064 C398.2411,10.0064 398.0411,9.7584 398.0411,9.4514 C398.0411,9.1444 398.2411,8.8964 398.4871,8.8964 L401.1521,8.8964 C401.3981,8.8964 401.5971,9.1444 401.5971,9.4514 C401.5971,9.7584 401.3981,10.0064 401.1521,10.0064 M408.2591,10.0064 L405.5951,10.0064 C405.3481,10.0064 405.1491,9.7584 405.1491,9.4514 C405.1491,9.1444 405.3481,8.8964 405.5951,8.8964 L408.2591,8.8964 C408.5061,8.8964 408.7051,9.1444 408.7051,9.4514 C408.7051,9.7584 408.5061,10.0064 408.2591,10.0064 M415.3671,10.0064 L412.7031,10.0064 C412.4561,10.0064 412.2571,9.7584 412.2571,9.4514 C412.2571,9.1444 412.4561,8.8964 412.7031,8.8964 L415.3671,8.8964 C415.6141,8.8964 415.8131,9.1444 415.8131,9.4514 C415.8131,9.7584 415.6141,10.0064 415.3671,10.0064 M422.4751,10.0064 L419.8101,10.0064 C419.5631,10.0064 419.3641,9.7584 419.3641,9.4514 C419.3641,9.1444 419.5631,8.8964 419.8101,8.8964 L422.4751,8.8964 C422.7211,8.8964 422.9211,9.1444 422.9211,9.4514 C422.9211,9.7584 422.7211,10.0064 422.4751,10.0064 M429.5831,10.0064 L426.9181,10.0064 C426.6711,10.0064 426.4721,9.7584 426.4721,9.4514 C426.4721,9.1444 426.6711,8.8964 426.9181,8.8964 L429.5831,8.8964 C429.8291,8.8964 430.0291,9.1444 430.0291,9.4514 C430.0291,9.7584 429.8291,10.0064 429.5831,10.0064 M436.6911,10.0064 L434.0251,10.0064 C433.7791,10.0064 433.5801,9.7584 433.5801,9.4514 C433.5801,9.1444 433.7791,8.8964 434.0251,8.8964 L436.6911,8.8964 C436.9371,8.8964 437.1371,9.1444 437.1371,9.4514 C437.1371,9.7584 436.9371,10.0064 436.6911,10.0064 M443.7991,10.0064 L441.1331,10.0064 C440.8871,10.0064 440.6881,9.7584 440.6881,9.4514 C440.6881,9.1444 440.8871,8.8964 441.1331,8.8964 L443.7991,8.8964 C444.0451,8.8964 444.2441,9.1444 444.2441,9.4514 C444.2441,9.7584 444.0451,10.0064 443.7991,10.0064 M450.9071,10.0064 L448.2411,10.0064 C447.9951,10.0064 447.7961,9.7584 447.7961,9.4514 C447.7961,9.1444 447.9951,8.8964 448.2411,8.8964 L450.9071,8.8964 C451.1531,8.8964 451.3521,9.1444 451.3521,9.4514 C451.3521,9.7584 451.1531,10.0064 450.9071,10.0064 M458.0151,10.0064 L455.3491,10.0064 C455.1031,10.0064 454.9041,9.7584 454.9041,9.4514 C454.9041,9.1444 455.1031,8.8964 455.3491,8.8964 L458.0151,8.8964 C458.2611,8.8964 458.4601,9.1444 458.4601,9.4514 C458.4601,9.7584 458.2611,10.0064 458.0151,10.0064 M465.1231,10.0064 L462.4571,10.0064 C462.2111,10.0064 462.0121,9.7584 462.0121,9.4514 C462.0121,9.1444 462.2111,8.8964 462.4571,8.8964 L465.1231,8.8964 C465.3691,8.8964 465.5681,9.1444 465.5681,9.4514 C465.5681,9.7584 465.3691,10.0064 465.1231,10.0064 M472.2311,10.0064 L469.5651,10.0064 C469.3191,10.0064 469.1201,9.7584 469.1201,9.4514 C469.1201,9.1444 469.3191,8.8964 469.5651,8.8964 L472.2311,8.8964 C472.4771,8.8964 472.6761,9.1444 472.6761,9.4514 C472.6761,9.7584 472.4771,10.0064 472.2311,10.0064 M479.3391,10.0064 L476.6731,10.0064 C476.4271,10.0064 476.2271,9.7584 476.2271,9.4514 C476.2271,9.1444 476.4271,8.8964 476.6731,8.8964 L479.3391,8.8964 C479.5851,8.8964 479.7841,9.1444 479.7841,9.4514 C479.7841,9.7584 479.5851,10.0064 479.3391,10.0064 M486.4471,10.0064 L483.7811,10.0064 C483.5351,10.0064 483.3351,9.7584 483.3351,9.4514 C483.3351,9.1444 483.5351,8.8964 483.7811,8.8964 L486.4471,8.8964 C486.6931,8.8964 486.8921,9.1444 486.8921,9.4514 C486.8921,9.7584 486.6931,10.0064 486.4471,10.0064 M493.5541,10.0064 L490.8891,10.0064 C490.6421,10.0064 490.4431,9.7584 490.4431,9.4514 C490.4431,9.1444 490.6421,8.8964 490.8891,8.8964 L493.5541,8.8964 C493.8011,8.8964 494.0001,9.1444 494.0001,9.4514 C494.0001,9.7584 493.8011,10.0064 493.5541,10.0064 M500.6621,10.0064 L497.9971,10.0064 C497.7501,10.0064 497.5511,9.7584 497.5511,9.4514 C497.5511,9.1444 497.7501,8.8964 497.9971,8.8964 L500.6621,8.8964 C500.9091,8.8964 501.1081,9.1444 501.1081,9.4514 C501.1081,9.7584 500.9091,10.0064 500.6621,10.0064 M507.7701,10.0064 L505.1051,10.0064 C504.8581,10.0064 504.6591,9.7584 504.6591,9.4514 C504.6591,9.1444 504.8581,8.8964 505.1051,8.8964 L507.7701,8.8964 C508.0161,8.8964 508.2161,9.1444 508.2161,9.4514 C508.2161,9.7584 508.0161,10.0064 507.7701,10.0064 M514.8781,10.0064 L512.2121,10.0064 C511.9661,10.0064 511.7671,9.7584 511.7671,9.4514 C511.7671,9.1444 511.9661,8.8964 512.2121,8.8964 L514.8781,8.8964 C515.1241,8.8964 515.3241,9.1444 515.3241,9.4514 C515.3241,9.7584 515.1241,10.0064 514.8781,10.0064 M521.9851,10.0064 L519.3201,10.0064 C519.0741,10.0064 518.8751,9.7584 518.8751,9.4514 C518.8751,9.1444 519.0741,8.8964 519.3201,8.8964 L521.9851,8.8964 C522.2311,8.8964 522.4311,9.1444 522.4311,9.4514 C522.4311,9.7584 522.2311,10.0064 521.9851,10.0064 M529.0931,10.0064 L526.4281,10.0064 C526.1821,10.0064 525.9831,9.7584 525.9831,9.4514 C525.9831,9.1444 526.1821,8.8964 526.4281,8.8964 L529.0931,8.8964 C529.3391,8.8964 529.5391,9.1444 529.5391,9.4514 C529.5391,9.7584 529.3391,10.0064 529.0931,10.0064 M536.2011,10.0064 L533.5361,10.0064 C533.2901,10.0064 533.0911,9.7584 533.0911,9.4514 C533.0911,9.1444 533.2901,8.8964 533.5361,8.8964 L536.2011,8.8964 C536.4471,8.8964 536.6461,9.1444 536.6461,9.4514 C536.6461,9.7584 536.4471,10.0064 536.2011,10.0064 M543.3091,10.0064 L540.6441,10.0064 C540.3981,10.0064 540.1991,9.7584 540.1991,9.4514 C540.1991,9.1444 540.3981,8.8964 540.6441,8.8964 L543.3091,8.8964 C543.5551,8.8964 543.7541,9.1444 543.7541,9.4514 C543.7541,9.7584 543.5551,10.0064 543.3091,10.0064 M550.4171,10.0064 L547.7511,10.0064 C547.5051,10.0064 547.3061,9.7584 547.3061,9.4514 C547.3061,9.1444 547.5051,8.8964 547.7511,8.8964 L550.4171,8.8964 C550.6631,8.8964 550.8621,9.1444 550.8621,9.4514 C550.8621,9.7584 550.6631,10.0064 550.4171,10.0064 M557.5251,10.0064 L554.8591,10.0064 C554.6131,10.0064 554.4141,9.7584 554.4141,9.4514 C554.4141,9.1444 554.6131,8.8964 554.8591,8.8964 L557.5251,8.8964 C557.7711,8.8964 557.9701,9.1444 557.9701,9.4514 C557.9701,9.7584 557.7711,10.0064 557.5251,10.0064 M564.6331,10.0064 L561.9671,10.0064 C561.7211,10.0064 561.5221,9.7584 561.5221,9.4514 C561.5221,9.1444 561.7211,8.8964 561.9671,8.8964 L564.6331,8.8964 C564.8791,8.8964 565.0781,9.1444 565.0781,9.4514 C565.0781,9.7584 564.8791,10.0064 564.6331,10.0064 M571.7411,10.0064 L569.0751,10.0064 C568.8291,10.0064 568.6291,9.7584 568.6291,9.4514 C568.6291,9.1444 568.8291,8.8964 569.0751,8.8964 L571.7411,8.8964 C571.9871,8.8964 572.1861,9.1444 572.1861,9.4514 C572.1861,9.7584 571.9871,10.0064 571.7411,10.0064 M578.8481,10.0064 L576.1831,10.0064 C575.9371,10.0064 575.7371,9.7584 575.7371,9.4514 C575.7371,9.1444 575.9371,8.8964 576.1831,8.8964 L578.8481,8.8964 C579.0951,8.8964 579.2941,9.1444 579.2941,9.4514 C579.2941,9.7584 579.0951,10.0064 578.8481,10.0064 M585.9561,10.0064 L583.2911,10.0064 C583.0441,10.0064 582.8451,9.7584 582.8451,9.4514 C582.8451,9.1444 583.0441,8.8964 583.2911,8.8964 L585.9561,8.8964 C586.2031,8.8964 586.4021,9.1444 586.4021,9.4514 C586.4021,9.7584 586.2031,10.0064 585.9561,10.0064 M593.0641,10.0064 L590.3991,10.0064 C590.1521,10.0064 589.9531,9.7584 589.9531,9.4514 C589.9531,9.1444 590.1521,8.8964 590.3991,8.8964 L593.0641,8.8964 C593.3111,8.8964 593.5101,9.1444 593.5101,9.4514 C593.5101,9.7584 593.3111,10.0064 593.0641,10.0064 M600.1721,10.0064 L597.5071,10.0064 C597.2601,10.0064 597.0611,9.7584 597.0611,9.4514 C597.0611,9.1444 597.2601,8.8964 597.5071,8.8964 L600.1721,8.8964 C600.4181,8.8964 600.6181,9.1444 600.6181,9.4514 C600.6181,9.7584 600.4181,10.0064 600.1721,10.0064 M607.2801,10.0064 L604.6141,10.0064 C604.3681,10.0064 604.1691,9.7584 604.1691,9.4514 C604.1691,9.1444 604.3681,8.8964 604.6141,8.8964 L607.2801,8.8964 C607.5261,8.8964 607.7261,9.1444 607.7261,9.4514 C607.7261,9.7584 607.5261,10.0064 607.2801,10.0064 M614.3881,10.0064 L611.7221,10.0064 C611.4761,10.0064 611.2771,9.7584 611.2771,9.4514 C611.2771,9.1444 611.4761,8.8964 611.7221,8.8964 L614.3881,8.8964 C614.6341,8.8964 614.8331,9.1444 614.8331,9.4514 C614.8331,9.7584 614.6341,10.0064 614.3881,10.0064 M621.4961,10.0064 L618.8301,10.0064 C618.5841,10.0064 618.3851,9.7584 618.3851,9.4514 C618.3851,9.1444 618.5841,8.8964 618.8301,8.8964 L621.4961,8.8964 C621.7421,8.8964 621.9411,9.1444 621.9411,9.4514 C621.9411,9.7584 621.7421,10.0064 621.4961,10.0064 M628.6041,10.0064 L625.9381,10.0064 C625.6921,10.0064 625.4931,9.7584 625.4931,9.4514 C625.4931,9.1444 625.6921,8.8964 625.9381,8.8964 L628.6041,8.8964 C628.8501,8.8964 629.0491,9.1444 629.0491,9.4514 C629.0491,9.7584 628.8501,10.0064 628.6041,10.0064 M635.7121,10.0064 L633.0461,10.0064 C632.8001,10.0064 632.6011,9.7584 632.6011,9.4514 C632.6011,9.1444 632.8001,8.8964 633.0461,8.8964 L635.7121,8.8964 C635.9581,8.8964 636.1571,9.1444 636.1571,9.4514 C636.1571,9.7584 635.9581,10.0064 635.7121,10.0064 M642.8201,10.0064 L640.1541,10.0064 C639.9081,10.0064 639.7091,9.7584 639.7091,9.4514 C639.7091,9.1444 639.9081,8.8964 640.1541,8.8964 L642.8201,8.8964 C643.0661,8.8964 643.2651,9.1444 643.2651,9.4514 C643.2651,9.7584 643.0661,10.0064 642.8201,10.0064 M649.9281,10.0064 L647.2621,10.0064 C647.0161,10.0064 646.8171,9.7584 646.8171,9.4514 C646.8171,9.1444 647.0161,8.8964 647.2621,8.8964 L649.9281,8.8964 C650.1741,8.8964 650.3731,9.1444 650.3731,9.4514 C650.3731,9.7584 650.1741,10.0064 649.9281,10.0064 M657.0351,10.0064 L654.3701,10.0064 C654.1241,10.0064 653.9241,9.7584 653.9241,9.4514 C653.9241,9.1444 654.1241,8.8964 654.3701,8.8964 L657.0351,8.8964 C657.2811,8.8964 657.4801,9.1444 657.4801,9.4514 C657.4801,9.7584 657.2811,10.0064 657.0351,10.0064 M664.1431,10.0064 L661.4781,10.0064 C661.2321,10.0064 661.0321,9.7584 661.0321,9.4514 C661.0321,9.1444 661.2321,8.8964 661.4781,8.8964 L664.1431,8.8964 C664.3891,8.8964 664.5881,9.1444 664.5881,9.4514 C664.5881,9.7584 664.3891,10.0064 664.1431,10.0064 M671.2501,10.0064 L668.5861,10.0064 C668.3391,10.0064 668.1401,9.7584 668.1401,9.4514 C668.1401,9.1444 668.3391,8.8964 668.5861,8.8964 L671.2501,8.8964 C671.4971,8.8964 671.6961,9.1444 671.6961,9.4514 C671.6961,9.7584 671.4971,10.0064 671.2501,10.0064 M678.3581,10.0064 L675.6941,10.0064 C675.4471,10.0064 675.2481,9.7584 675.2481,9.4514 C675.2481,9.1444 675.4471,8.8964 675.6941,8.8964 L678.3581,8.8964 C678.6051,8.8964 678.8041,9.1444 678.8041,9.4514 C678.8041,9.7584 678.6051,10.0064 678.3581,10.0064 M685.4661,10.0064 L682.8011,10.0064 C682.5551,10.0064 682.3561,9.7584 682.3561,9.4514 C682.3561,9.1444 682.5551,8.8964 682.8011,8.8964 L685.4661,8.8964 C685.7131,8.8964 685.9121,9.1444 685.9121,9.4514 C685.9121,9.7584 685.7131,10.0064 685.4661,10.0064 M692.5741,10.0064 L689.9091,10.0064 C689.6621,10.0064 689.4631,9.7584 689.4631,9.4514 C689.4631,9.1444 689.6621,8.8964 689.9091,8.8964 L692.5741,8.8964 C692.8201,8.8964 693.0201,9.1444 693.0201,9.4514 C693.0201,9.7584 692.8201,10.0064 692.5741,10.0064 M699.6821,10.0064 L697.0161,10.0064 C696.7701,10.0064 696.5711,9.7584 696.5711,9.4514 C696.5711,9.1444 696.7701,8.8964 697.0161,8.8964 L699.6821,8.8964 C699.9281,8.8964 700.1281,9.1444 700.1281,9.4514 C700.1281,9.7584 699.9281,10.0064 699.6821,10.0064 M706.7901,10.0064 L704.1241,10.0064 C703.8781,10.0064 703.6791,9.7584 703.6791,9.4514 C703.6791,9.1444 703.8781,8.8964 704.1241,8.8964 L706.7901,8.8964 C707.0361,8.8964 707.2361,9.1444 707.2361,9.4514 C707.2361,9.7584 707.0361,10.0064 706.7901,10.0064" id="Fill-1" fill="#4FE4DE"></path>
            <g id="Group-5" transform="translate(706.000000, 0.155600)">
                <mask id="mask-2" fill="white">
                    <use xlink:href="#path-1"></use>
                </mask>
                <g id="Clip-4"></g>
                <path d="M0.889,21 C0.825,21 0.759,20.987 0.698,20.962 C0.511,20.884 0.389,20.702 0.389,20.5 L0.389,13.896 C0.389,13.619 0.613,13.396 0.889,13.396 C1.165,13.396 1.389,13.619 1.389,13.896 L1.389,19.297 L9.361,11.358 L1.389,2.633 L1.389,10.896 C1.389,11.172 1.165,11.396 0.889,11.396 C0.613,11.396 0.389,11.172 0.389,10.896 L0.389,1.345 C0.389,1.139 0.516,0.953 0.708,0.879 C0.901,0.803 1.119,0.855 1.258,1.008 L10.422,11.038 C10.603,11.235 10.596,11.54 10.406,11.729 L1.242,20.854 C1.146,20.949 1.019,21 0.889,21" id="Fill-3" fill="#4FE4DE" mask="url(#mask-2)"></path>
            </g>
        </g>
    </g>
</svg>